<?xml version="1.0" standalone="no"?>
<!DOCTYPE svg PUBLIC "-//W3C//DTD SVG 20010904//EN"
 "http://www.w3.org/TR/2001/REC-SVG-20010904/DTD/svg10.dtd">
<svg version="1.0" xmlns="http://www.w3.org/2000/svg"
 width="1801.000000pt" height="1801.000000pt" viewBox="0 0 1801.000000 1801.000000"
 preserveAspectRatio="xMidYMid meet">
<metadata>
Created by potrace 1.14, written by Peter Selinger 2001-2017
</metadata>
<g transform="translate(0.000000,1801.000000) scale(0.100000,-0.100000)"
fill="#000000" stroke="none">
<path d="M8625 16504 c-27 -2 -115 -8 -195 -14 -1599 -117 -3108 -741 -4349
-1799 -186 -159 -632 -604 -787 -786 -768 -902 -1280 -1883 -1564 -3000 -131
-513 -198 -987 -221 -1565 -39 -978 89 -1887 394 -2785 l34 -100 3630 2 c3266
1 3643 3 3754 18 565 73 1075 323 1480 725 374 372 620 845 716 1380 25 133
27 168 27 420 0 241 -2 291 -22 405 -24 139 -66 304 -107 424 -24 73 -25 75
-6 95 10 12 182 215 381 451 200 237 388 458 418 493 l55 63 40 -68 c99 -169
220 -442 296 -671 333 -994 221 -2138 -297 -3047 -181 -318 -392 -587 -678
-865 -376 -365 -800 -633 -1296 -819 -326 -122 -741 -211 -1057 -226 -153 -7
-2525 -15 -4799 -15 l-1962 0 56 -92 c574 -938 1318 -1719 2221 -2332 988
-669 2143 -1098 3328 -1235 347 -41 454 -46 895 -46 465 0 636 11 1005 60
1906 258 3616 1210 4830 2690 472 575 885 1277 1152 1960 240 613 395 1236
467 1885 35 307 41 442 41 900 0 458 -6 593 -41 900 -83 748 -281 1480 -584
2165 -34 77 -114 244 -179 370 -631 1235 -1606 2275 -2811 2997 -983 589
-2056 935 -3240 1044 -164 15 -891 28 -1025 18z m730 -3725 c336 -33 659 -108
964 -222 62 -23 112 -46 112 -52 -1 -5 -192 -234 -423 -508 -393 -464 -423
-498 -447 -492 -166 43 -451 69 -656 61 -382 -15 -701 -95 -1040 -261 -493
-242 -899 -643 -1149 -1134 -124 -244 -209 -508 -252 -781 -26 -163 -26 -596
-1 -758 67 -417 218 -788 458 -1119 33 -46 57 -87 54 -93 -4 -7 -251 -10 -709
-10 -661 0 -704 1 -709 18 -3 9 -30 77 -61 150 -188 452 -280 920 -280 1432 0
260 9 388 45 610 252 1560 1444 2794 2999 3104 347 69 751 90 1095 55z m1915
-821 c105 -32 179 -77 260 -158 192 -191 235 -481 108 -723 -46 -87 -174 -215
-258 -255 -104 -51 -219 -76 -320 -69 -330 22 -580 288 -580 617 0 169 58 309
179 430 167 167 390 225 611 158z"/>
</g>
</svg>
