<?xml version="1.0" standalone="no"?>
<!DOCTYPE svg PUBLIC "-//W3C//DTD SVG 20010904//EN"
 "http://www.w3.org/TR/2001/REC-SVG-20010904/DTD/svg10.dtd">
<svg version="1.0" xmlns="http://www.w3.org/2000/svg"
 width="260.000000pt" height="260.000000pt" viewBox="0 0 260.000000 260.000000"
 preserveAspectRatio="xMidYMid meet">
<metadata>
Created by potrace 1.11, written by Peter Selinger 2001-2013
</metadata>
<g transform="translate(0.000000,260.000000) scale(0.100000,-0.100000)"
fill="#000000" stroke="none">
<path d="M0 1300 l0 -1300 1300 0 1300 0 0 1300 0 1300 -1300 0 -1300 0 0
-1300z m1417 972 c52 -27 98 -73 126 -126 32 -61 31 -174 -3 -239 -48 -94
-133 -147 -240 -147 -107 0 -193 53 -240 146 -74 148 -2 321 157 380 51 19
148 12 200 -14z m-307 -583 c47 -29 123 -49 190 -49 98 0 167 26 256 97 l41
33 30 -33 c118 -128 183 -289 183 -457 0 -120 -44 -275 -91 -319 -33 -31 -98
-29 -132 4 -36 36 -38 66 -10 153 13 42 23 92 21 111 -3 36 -3 35 -48 -46
l-45 -83 -205 0 -205 0 -44 100 c-24 55 -47 100 -51 100 -14 0 1 -110 25 -187
26 -82 23 -112 -12 -148 -34 -33 -99 -35 -132 -4 -30 29 -57 92 -76 183 -44
218 15 428 168 593 l30 33 41 -33 c23 -18 52 -40 66 -48z m-557 -510 c22 -27
22 -61 -2 -107 -43 -85 -35 -156 27 -224 44 -49 102 -77 184 -88 74 -11 95
-29 104 -89 13 -87 51 -140 133 -181 107 -53 233 -33 326 52 62 56 60 56 190
43 111 -11 208 32 261 117 27 42 38 48 129 73 46 13 70 27 106 63 73 73 84
143 38 234 -33 64 -17 119 37 132 43 11 79 -11 108 -64 74 -136 47 -298 -69
-415 -47 -48 -127 -94 -187 -109 -15 -3 -50 -31 -79 -61 -89 -94 -219 -143
-351 -132 -52 4 -69 2 -79 -9 -19 -23 -119 -78 -166 -92 -116 -34 -253 -20
-355 35 -68 37 -152 130 -176 195 -18 49 -22 53 -65 64 -75 19 -137 54 -191
108 -88 89 -127 202 -107 312 13 66 55 148 85 163 29 15 78 5 99 -20z"/>
</g>
</svg>
